# xmcd
#
# Track frame offsets: 
#        150
#        13540
#        32692
#        45095
#        57865
#        72755
#        95085
#        117372
#        140427
#        163550
#        186217
#        212375
#
# Disc length: 3113 seconds
#
# Revision: 0
# Processed by: cddbd v1.5.2PL0 Copyright (c) Steve Scherf et al.
# Submitted via: ExactAudioCopy v0.95b4
#
DISCID=980c270c
DTITLE=Celia Cruz - Legends of Fania
DYEAR=2001
DGENRE=Salsa
TTITLE0=Cuando Salí de Cuba
TTITLE1=Reina Rumba
TTITLE2=Afecto y Cariño
TTITLE3=La Plena Bomba Me Llama
TTITLE4=Perdón
TTITLE5=Ay Mi Cuba
TTITLE6=Come Down to Miami
TTITLE7=Feliz Encuentro
TTITLE8=Celia y La Matancera
TTITLE9=Para Decirte Adiós
TTITLE10=Un Bembé Pa' Yemayá (remix)
TTITLE11=El Tumbao y Celia
EXTD=
EXTT0=
EXTT1=
EXTT2=
EXTT3=
EXTT4=
EXTT5=
EXTT6=
EXTT7=
EXTT8=
EXTT9=
EXTT10=
EXTT11=
PLAYORDER=
